<svg xmlns="http://www.w3.org/2000/svg" width="39.196" height="28.127" viewBox="0 0 39.196 28.127">
  <path id="Icon_awesome-credit-card" data-name="Icon awesome-credit-card" d="M0,27.363a3.148,3.148,0,0,0,3.266,3.014H35.93A3.148,3.148,0,0,0,39.2,27.363V16.314H0Zm13.065-4.269a.789.789,0,0,1,.817-.753h9.255a.789.789,0,0,1,.817.753v2.511a.789.789,0,0,1-.817.753H13.882a.789.789,0,0,1-.817-.753Zm-8.71,0a.789.789,0,0,1,.817-.753h4.9a.789.789,0,0,1,.817.753v2.511a.789.789,0,0,1-.817.753h-4.9a.789.789,0,0,1-.817-.753ZM39.2,5.264V8.277H0V5.264A3.148,3.148,0,0,1,3.266,2.25H35.93A3.148,3.148,0,0,1,39.2,5.264Z" transform="translate(0 -2.25)" fill="#ef9c4b"/>
</svg>
